<?xml version="1.0" standalone="no"?>
<!DOCTYPE svg PUBLIC "-//W3C//DTD SVG 20010904//EN"
 "http://www.w3.org/TR/2001/REC-SVG-20010904/DTD/svg10.dtd">
<svg version="1.0" xmlns="http://www.w3.org/2000/svg"
 width="344.000000pt" height="344.000000pt" viewBox="0 0 344.000000 344.000000"
 preserveAspectRatio="xMidYMid meet">
<metadata>
Created by potrace 1.14, written by Peter Selinger 2001-2017
</metadata>
<g transform="translate(0.000000,344.000000) scale(0.100000,-0.100000)"
fill="#000000" stroke="none">
<path d="M1322 3218 c-42 -11 -90 -62 -98 -103 -14 -79 24 -143 101 -169 l37
-13 0 -299 c-1 -164 -1 -307 -1 -316 -1 -10 -8 -18 -16 -18 -8 0 -23 -4 -33
-9 -9 -5 -47 -23 -85 -40 -37 -16 -107 -57 -155 -90 -266 -182 -449 -480 -488
-796 -13 -102 -8 -275 11 -370 70 -353 315 -679 570 -757 68 -21 86 -22 530
-22 493 0 534 3 618 34 151 57 326 238 431 447 160 320 160 718 0 1033 -132
261 -347 454 -626 564 -31 12 -38 20 -39 43 0 38 0 541 0 576 1 17 6 27 16 27
24 0 76 30 97 54 37 45 35 131 -5 177 -46 53 -44 53 -454 54 -209 0 -395 -3
-411 -7z"/>
</g>
</svg>
